# File created by Blade
# Date/Time:  Fri Jan 16 17:19:08 2015
# Frame Rate: 120.000 fps
#------------------------------------------------------
:FULLY-SPECIFIED
:DEGREES
3537
root -5.241452 35.204302 -9.296297 1.004782 -1.437745 -5.830677
Spine -5.776915 -5.853279 7.530321
Head 9.806263 -7.262438 -5.878747
LeftShoulder -23.326805 12.755242 -13.128992
LeftArm 13.095792 -17.860175 -76.788033
LeftForeArm 14.337510 0.000000 10.411131
LeftHand 0.033473 -0.000000 -4.111527
LeftHandThumb1 -26.253704 0.000000 33.147579
RightShoulder -15.939820 10.613528 -13.397261
RightArm -56.226568 62.661123 -0.614051
RightForeArm 61.457054 -0.000000 19.719236
RightHand 11.167611 -0.000000 -21.572925
RightHandThumb1 -24.326973 -0.000000 -32.862282
LeftUpLeg 9.045006 11.543467 6.166981
LeftLeg -9.021504 -0.000000 0.000000
LeftFoot -15.993386 27.491098 -7.820235
LeftToeBase 22.792268 -0.000000 -0.000000
RightUpLeg 6.832254 -6.592125 4.070217
RightLeg -4.473852 -0.000000 0.000000
RightFoot -5.822407 -29.306916 5.228458
RightToeBase 13.623761 -0.000000 -0.000000
3538
root -5.242207 35.203786 -9.289609 0.978813 -1.497098 -5.834294
Spine -5.767672 -5.840945 7.549682
Head 9.864257 -7.259812 -5.917447
LeftShoulder -23.331926 12.758711 -13.125991
LeftArm 13.038657 -17.884540 -76.767259
LeftForeArm 14.306024 -0.000000 10.442430
LeftHand -0.024775 -0.000000 -4.101305
LeftHandThumb1 -26.253704 0.000000 33.147579
RightShoulder -15.934435 10.561237 -13.379442
RightArm -56.746314 62.787552 -1.295641
RightForeArm 61.490431 0.000000 20.933325
RightHand 11.658860 -0.000000 -21.258081
RightHandThumb1 -24.326973 -0.000000 -32.862282
LeftUpLeg 9.100571 11.530222 6.173887
LeftLeg -9.027304 -0.000000 0.000000
LeftFoot -15.999472 27.547103 -7.842397
LeftToeBase 22.736459 -0.000000 -0.000000
RightUpLeg 6.869235 -6.559990 4.066144
RightLeg -4.477718 -0.000000 0.000000
RightFoot -5.820679 -29.279112 5.214675
RightToeBase 13.649039 -0.000000 -0.000000
3539
root -5.245265 35.203085 -9.284217 0.972071 -1.552267 -5.846288
Spine -5.783195 -5.835443 7.582237
Head 9.927062 -7.244815 -5.975100
LeftShoulder -23.340503 12.779768 -13.132888
LeftArm 13.003950 -17.938352 -76.756644
LeftForeArm 14.300110 -0.000000 10.447693
LeftHand -0.028237 -0.000000 -4.042200
LeftHandThumb1 -26.253704 0.000000 33.147579
RightShoulder -15.965019 10.473704 -13.354679
RightArm -57.181370 62.973947 -1.865027
RightForeArm 61.072773 -0.000000 22.334728
RightHand 11.522275 -0.000000 -20.772631
RightHandThumb1 -24.326973 -0.000000 -32.862282
LeftUpLeg 9.140053 11.491163 6.190467
LeftLeg -9.047583 -0.000000 0.000000
LeftFoot -16.040935 27.641050 -7.800348
LeftToeBase 22.954174 -0.000000 -0.000000
RightUpLeg 6.882793 -6.541008 4.078949
RightLeg -4.479351 -0.000000 0.000000
RightFoot -5.826872 -29.266937 5.226195
RightToeBase 13.619220 -0.000000 -0.000000
3540
root -5.247716 35.202719 -9.278624 0.959087 -1.606147 -5.847546
Spine -5.774985 -5.828569 7.607625
Head 9.944470 -7.226492 -6.038098
LeftShoulder -23.371880 12.694187 -13.121033
LeftArm 12.912440 -17.862947 -76.671980
LeftForeArm 14.192297 -0.000000 10.394142
LeftHand -0.038113 -0.000000 -4.076670
LeftHandThumb1 -26.253704 0.000000 33.147579
RightShoulder -16.029198 10.430497 -13.375198
RightArm -57.848122 63.204577 -2.594608
RightForeArm 60.588404 -0.000000 23.820355
RightHand 11.683231 0.000000 -19.928712
RightHandThumb1 -24.326973 -0.000000 -32.862282
LeftUpLeg 9.184378 11.443229 6.192288
LeftLeg -9.061566 -0.000000 0.000000
LeftFoot -16.045268 27.702774 -7.900979
LeftToeBase 22.789600 -0.000000 -0.000000
RightUpLeg 6.901601 -6.547653 4.077830
RightLeg -4.479310 -0.000000 0.000000
RightFoot -5.836036 -29.233042 5.240834
RightToeBase 13.599640 -0.000000 -0.000000
3541
root -5.250038 35.202440 -9.274658 0.956190 -1.664188 -5.854477
Spine -5.789656 -5.819526 7.636940
Head 10.002471 -7.206726 -6.106221
LeftShoulder -23.386596 12.697038 -13.121595
LeftArm 12.880130 -17.905770 -76.665896
LeftForeArm 14.165055 -0.000000 10.382263
LeftHand -0.029730 -0.000000 -4.085486
LeftHandThumb1 -26.253704 0.000000 33.147579
RightShoulder -16.051959 10.351211 -13.301275
RightArm -58.331018 63.406704 -3.275697
RightForeArm 60.579896 -0.000000 25.295450
RightHand 11.431041 -0.000000 -19.597981
RightHandThumb1 -24.326973 -0.000000 -32.862282
LeftUpLeg 9.217237 11.423863 6.199752
LeftLeg -9.079366 -0.000000 0.000000
LeftFoot -16.052130 27.767360 -7.912129
LeftToeBase 22.800799 -0.000000 -0.000000
RightUpLeg 6.908768 -6.520496 4.085251
RightLeg -4.479569 -0.000000 0.000000
RightFoot -5.842847 -29.219758 5.250245
RightToeBase 13.595302 -0.000000 -0.000000
3542
root -5.252881 35.202396 -9.270760 0.955381 -1.723031 -5.863535
Spine -5.806915 -5.806496 7.663029
Head 10.058898 -7.172929 -6.154555
LeftShoulder -23.401022 12.703602 -13.122440
LeftArm 12.856886 -17.937896 -76.662085
LeftForeArm 14.147205 -0.000000 10.361759
LeftHand -0.059646 -0.000000 -4.059170
LeftHandThumb1 -26.253704 0.000000 33.147579
RightShoulder -16.076957 10.297111 -13.275073
RightArm -58.760429 63.536335 -3.801348
RightForeArm 60.395909 -0.000000 26.809616
RightHand 12.971389 -0.000000 -19.165085
RightHandThumb1 -24.326973 -0.000000 -32.862282
LeftUpLeg 9.244832 11.426331 6.213660
LeftLeg -9.090836 -0.000000 0.000000
LeftFoot -16.080898 27.825024 -7.889589
LeftToeBase 22.898869 -0.000000 -0.000000
RightUpLeg 6.905112 -6.519688 4.091853
RightLeg -4.459929 -0.000000 0.000000
RightFoot -5.857635 -29.162545 5.253951
RightToeBase 13.604589 -0.000000 -0.000000
3543
root -5.254920 35.202345 -9.267347 0.959493 -1.775251 -5.871520
Spine -5.846112 -5.803197 7.683374
Head 10.161654 -7.123755 -6.198112
LeftShoulder -23.393276 12.795190 -13.134154
LeftArm 12.890116 -18.039054 -76.706398
LeftForeArm 14.172746 -0.000000 10.356545
LeftHand -0.036142 -0.000000 -4.038111
LeftHandThumb1 -26.253704 0.000000 33.147579
RightShoulder -16.102586 10.181359 -13.196191
RightArm -59.462038 63.829118 -4.576875
RightForeArm 60.236524 -0.000000 28.476296
RightHand 14.246107 -0.000000 -18.315793
RightHandThumb1 -24.326973 -0.000000 -32.862282
LeftUpLeg 9.268858 11.406283 6.220249
LeftLeg -9.108034 -0.000000 0.000000
LeftFoot -16.092276 27.876508 -7.905876
LeftToeBase 22.914786 -0.000000 -0.000000
RightUpLeg 6.901746 -6.507792 4.098857
RightLeg -4.455225 -0.000000 0.000000
RightFoot -5.847000 -29.125322 5.243777
RightToeBase 13.582635 -0.000000 -0.000000
3544
root -5.256071 35.202295 -9.264212 0.958360 -1.817745 -5.876489
Spine -5.866691 -5.801641 7.714393
Head 10.222150 -7.075887 -6.267887
LeftShoulder -23.382390 12.812625 -13.141958
LeftArm 12.875844 -18.147258 -76.728559
LeftForeArm 14.237783 0.000000 10.326857
LeftHand 0.001551 0.000000 -4.123637
LeftHandThumb1 -26.253704 0.000000 33.147579
RightShoulder -16.140134 10.112644 -13.149955
RightArm -60.125117 64.047491 -5.301650
RightForeArm 59.841163 -0.000000 30.147267
RightHand 14.593863 -0.000000 -17.216463
RightHandThumb1 -24.326973 -0.000000 -32.862282
LeftUpLeg 9.291757 11.396383 6.225320
LeftLeg -9.121972 -0.000000 0.000000
LeftFoot -16.101285 27.921530 -7.929952
LeftToeBase 22.902616 -0.000000 -0.000000
RightUpLeg 6.901945 -6.502563 4.100094
RightLeg -4.445979 -0.000000 0.000000
RightFoot -5.862476 -29.083036 5.260649
RightToeBase 13.586800 -0.000000 -0.000000
3545
root -5.256404 35.202309 -9.261268 0.964420 -1.867334 -5.882772
Spine -5.895009 -5.798353 7.752331
Head 10.278301 -7.014970 -6.351505
LeftShoulder -23.401561 12.812174 -13.154289
LeftArm 12.858474 -18.130311 -76.717301
LeftForeArm 14.212982 -0.000000 10.293789
LeftHand -0.000084 -0.000000 -4.098474
LeftHandThumb1 -26.253704 0.000000 33.147579
RightShoulder -16.173455 10.028816 -13.031437
RightArm -60.840156 64.321057 -6.221466
RightForeArm 59.704261 -0.000000 31.816825
RightHand 14.269681 -0.000000 -16.277616
RightHandThumb1 -24.326973 -0.000000 -32.862282
LeftUpLeg 9.313136 11.393547 6.227110
LeftLeg -9.137788 -0.000000 0.000000
LeftFoot -16.096906 27.942197 -8.006740
LeftToeBase 22.776611 -0.000000 -0.000000
RightUpLeg 6.888707 -6.491617 4.105065
RightLeg -4.429225 -0.000000 0.000000
RightFoot -5.870694 -29.062213 5.262559
RightToeBase 13.611356 -0.000000 -0.000000
3546
root -5.257795 35.202339 -9.260181 0.973759 -1.896652 -5.890538
Spine -5.924921 -5.807618 7.789011
Head 10.333570 -6.956653 -6.427994
LeftShoulder -23.399802 12.811329 -13.157984
LeftArm 12.836442 -18.118852 -76.711069
LeftForeArm 14.165258 -0.000000 10.256688
LeftHand -0.020081 0.000000 -4.204120
LeftHandThumb1 -26.253704 0.000000 33.147579
RightShoulder -16.206403 9.933397 -12.926889
RightArm -61.372272 64.518384 -6.895395
RightForeArm 59.511437 -0.000000 33.470185
RightHand 15.165049 -0.000000 -14.927386
RightHandThumb1 -24.326973 -0.000000 -32.862282
LeftUpLeg 9.314801 11.405863 6.236078
LeftLeg -9.143792 -0.000000 0.000000
LeftFoot -16.107957 27.974781 -7.949041
LeftToeBase 22.877421 -0.000000 -0.000000
RightUpLeg 6.870816 -6.504357 4.112081
RightLeg -4.411285 -0.000000 0.000000
RightFoot -5.858956 -29.025164 5.241073
RightToeBase 13.586173 -0.000000 -0.000000
3547
root -5.259080 35.202071 -9.257945 0.970908 -1.931763 -5.901019
Spine -5.943508 -5.821910 7.833173
Head 10.389328 -6.880331 -6.515629
LeftShoulder -23.409900 12.799758 -13.165371
LeftArm 12.815062 -18.143949 -76.719495
LeftForeArm 14.178035 -0.000000 10.223511
LeftHand 0.001721 0.000000 -4.242784
LeftHandThumb1 -26.253704 0.000000 33.147579
RightShoulder -16.224805 9.886006 -12.885329
RightArm -62.038606 64.676961 -7.578486
RightForeArm 59.351805 -0.000000 35.265591
RightHand 15.995018 -0.000000 -13.397564
RightHandThumb1 -24.326973 -0.000000 -32.862282
LeftUpLeg 9.334505 11.420888 6.247480
LeftLeg -9.150267 -0.000000 0.000000
LeftFoot -16.112430 27.973055 -8.012890
LeftToeBase 22.766341 -0.000000 -0.000000
RightUpLeg 6.873774 -6.464345 4.123862
RightLeg -4.407234 -0.000000 0.000000
RightFoot -5.863179 -29.036712 5.234885
RightToeBase 13.628654 -0.000000 -0.000000
3548
root -5.259793 35.201916 -9.255708 0.980798 -1.966776 -5.909019
Spine -5.978095 -5.801191 7.872701
Head 10.443529 -6.817062 -6.596912
LeftShoulder -23.397913 12.802507 -13.167905
LeftArm 12.805353 -18.123409 -76.720899
LeftForeArm 14.200184 -0.000000 10.174423
LeftHand 0.050341 0.000000 -4.217557
LeftHandThumb1 -26.253704 0.000000 33.147579
RightShoulder -16.269279 9.832378 -12.851864
RightArm -62.829402 64.827250 -8.371426
RightForeArm 58.837443 -0.000000 37.074750
RightHand 16.779236 -0.000000 -11.839785
RightHandThumb1 -24.326973 -0.000000 -32.862282
LeftUpLeg 9.348241 11.440929 6.256948
LeftLeg -9.174079 -0.000000 0.000000
LeftFoot -16.106595 28.002563 -7.943839
LeftToeBase 22.887910 -0.000000 -0.000000
RightUpLeg 6.860074 -6.443359 4.130345
RightLeg -4.392750 -0.000000 0.000000
RightFoot -5.880410 -29.008948 5.268188
RightToeBase 13.606292 -0.000000 -0.000000
